<mxfile host="app.diagrams.net" modified="2023-07-10T16:39:29.308Z" agent="Mozilla/5.0 (Macintosh; Intel Mac OS X 10.15; rv:109.0) Gecko/20100101 Firefox/112.0" etag="T90raTXebrlzT0wsk-E5" version="21.5.1" type="device">
  <diagram name="Page-1" id="wOth1ota07Pw-S6lClBJ">
    <mxGraphModel dx="1656" dy="999" grid="1" gridSize="10" guides="1" tooltips="1" connect="1" arrows="1" fold="1" page="1" pageScale="1" pageWidth="850" pageHeight="1100" math="0" shadow="0">
      <root>
        <mxCell id="0" />
        <mxCell id="1" parent="0" />
        <mxCell id="1PkU-f0ubo03ow83YB08-6" value="" style="rounded=0;whiteSpace=wrap;html=1;fillColor=#dae8fc;strokeColor=#6c8ebf;" parent="1" vertex="1">
          <mxGeometry x="20" y="35" width="790" height="545" as="geometry" />
        </mxCell>
        <mxCell id="yffBxAs0DZZ8emXcpn5b-2" value="" style="rounded=0;whiteSpace=wrap;html=1;fillColor=#ffe6cc;strokeColor=#d79b00;" vertex="1" parent="1">
          <mxGeometry x="65" y="200" width="190" height="310" as="geometry" />
        </mxCell>
        <mxCell id="yffBxAs0DZZ8emXcpn5b-3" value="AZ-1" style="text;html=1;strokeColor=none;fillColor=none;align=center;verticalAlign=middle;whiteSpace=wrap;rounded=0;fontSize=16;" vertex="1" parent="1">
          <mxGeometry x="100" y="170" width="130" height="30" as="geometry" />
        </mxCell>
        <mxCell id="yffBxAs0DZZ8emXcpn5b-4" value="" style="rounded=0;whiteSpace=wrap;html=1;fillColor=#ffe6cc;strokeColor=#d79b00;" vertex="1" parent="1">
          <mxGeometry x="330" y="200" width="190" height="310" as="geometry" />
        </mxCell>
        <mxCell id="yffBxAs0DZZ8emXcpn5b-5" value="&lt;div&gt;AZ-2&lt;/div&gt;" style="text;html=1;strokeColor=none;fillColor=none;align=center;verticalAlign=middle;whiteSpace=wrap;rounded=0;fontSize=16;" vertex="1" parent="1">
          <mxGeometry x="365" y="170" width="130" height="30" as="geometry" />
        </mxCell>
        <mxCell id="yffBxAs0DZZ8emXcpn5b-6" value="" style="rounded=0;whiteSpace=wrap;html=1;fillColor=#ffe6cc;strokeColor=#d79b00;" vertex="1" parent="1">
          <mxGeometry x="580" y="200" width="190" height="310" as="geometry" />
        </mxCell>
        <mxCell id="yffBxAs0DZZ8emXcpn5b-7" value="AZ-3" style="text;html=1;strokeColor=none;fillColor=none;align=center;verticalAlign=middle;whiteSpace=wrap;rounded=0;fontSize=16;" vertex="1" parent="1">
          <mxGeometry x="620" y="170" width="130" height="30" as="geometry" />
        </mxCell>
        <mxCell id="1PkU-f0ubo03ow83YB08-4" value="VPC" style="text;html=1;strokeColor=none;fillColor=none;align=center;verticalAlign=middle;whiteSpace=wrap;rounded=0;fontSize=24;" parent="1" vertex="1">
          <mxGeometry x="730" y="50" width="60" height="30" as="geometry" />
        </mxCell>
        <mxCell id="1PkU-f0ubo03ow83YB08-35" value="" style="rounded=0;whiteSpace=wrap;html=1;fillColor=none;strokeWidth=3;" parent="1" vertex="1">
          <mxGeometry x="30" y="220" width="770" height="350" as="geometry" />
        </mxCell>
        <mxCell id="1PkU-f0ubo03ow83YB08-36" value="GKE Cluster" style="text;html=1;strokeColor=none;fillColor=none;align=center;verticalAlign=middle;whiteSpace=wrap;rounded=0;fontSize=24;" parent="1" vertex="1">
          <mxGeometry x="640" y="530" width="150" height="30" as="geometry" />
        </mxCell>
        <mxCell id="1PkU-f0ubo03ow83YB08-37" value="&lt;font style=&quot;font-size: 14px;&quot;&gt;Default Node Pool&lt;br&gt;&lt;/font&gt;" style="rounded=0;whiteSpace=wrap;html=1;fillColor=#b0e3e6;strokeColor=#0e8088;" parent="1" vertex="1">
          <mxGeometry x="70" y="240" width="690" height="40" as="geometry" />
        </mxCell>
        <mxCell id="1PkU-f0ubo03ow83YB08-42" value="&lt;div&gt;&lt;font style=&quot;font-size: 14px;&quot;&gt;prod10k Node Pool&lt;/font&gt;&lt;/div&gt;" style="rounded=0;whiteSpace=wrap;html=1;fillColor=#b0e3e6;strokeColor=#0e8088;" parent="1" vertex="1">
          <mxGeometry x="70" y="340" width="690" height="40" as="geometry" />
        </mxCell>
        <mxCell id="1PkU-f0ubo03ow83YB08-45" value="&lt;font style=&quot;font-size: 14px;&quot;&gt;prod100k Node Pool&lt;/font&gt;" style="rounded=0;whiteSpace=wrap;html=1;fillColor=#b0e3e6;strokeColor=#0e8088;" parent="1" vertex="1">
          <mxGeometry x="70" y="390" width="690" height="40" as="geometry" />
        </mxCell>
        <mxCell id="1PkU-f0ubo03ow83YB08-48" value="&lt;font style=&quot;font-size: 14px;&quot;&gt;monitoring Node Pool&lt;/font&gt;" style="rounded=0;whiteSpace=wrap;html=1;fillColor=#b0e3e6;strokeColor=#0e8088;" parent="1" vertex="1">
          <mxGeometry x="70" y="440" width="690" height="40" as="geometry" />
        </mxCell>
        <mxCell id="yffBxAs0DZZ8emXcpn5b-1" value="&lt;div&gt;&lt;font style=&quot;font-size: 14px;&quot;&gt;prod1k Node Pool&lt;/font&gt;&lt;/div&gt;" style="rounded=0;whiteSpace=wrap;html=1;fillColor=#b0e3e6;strokeColor=#0e8088;" vertex="1" parent="1">
          <mxGeometry x="70" y="290" width="690" height="40" as="geometry" />
        </mxCell>
        <mxCell id="yffBxAs0DZZ8emXcpn5b-8" value="Bastion" style="rounded=0;whiteSpace=wrap;html=1;fillColor=#e1d5e7;strokeColor=#9673a6;" vertex="1" parent="1">
          <mxGeometry x="105" y="90" width="120" height="60" as="geometry" />
        </mxCell>
        <mxCell id="yffBxAs0DZZ8emXcpn5b-9" value="" style="rounded=0;whiteSpace=wrap;html=1;fillColor=#fff2cc;strokeColor=#d6b656;" vertex="1" parent="1">
          <mxGeometry x="365" y="100" width="120" height="60" as="geometry" />
        </mxCell>
        <mxCell id="yffBxAs0DZZ8emXcpn5b-10" value="Internal Load Balancer Endpoint" style="rounded=0;whiteSpace=wrap;html=1;fillColor=#fff2cc;strokeColor=#d6b656;" vertex="1" parent="1">
          <mxGeometry x="355" y="90" width="120" height="60" as="geometry" />
        </mxCell>
      </root>
    </mxGraphModel>
  </diagram>
</mxfile>
